<svg width="25" height="16" viewBox="0 0 25 16" fill="none" xmlns="http://www.w3.org/2000/svg">
<path d="M23.75 7.25H23V4.25C23 3.85218 22.842 3.47064 22.5607 3.18934C22.2794 2.90804 21.8978 2.75 21.5 2.75H20V2C20 1.60218 19.842 1.22064 19.5607 0.93934C19.2794 0.658035 18.8978 0.5 18.5 0.5H16.25C15.8522 0.5 15.4706 0.658035 15.1893 0.93934C14.908 1.22064 14.75 1.60218 14.75 2V7.25H10.25V2C10.25 1.60218 10.092 1.22064 9.81066 0.93934C9.52936 0.658035 9.14782 0.5 8.75 0.5H6.5C6.10218 0.5 5.72064 0.658035 5.43934 0.93934C5.15804 1.22064 5 1.60218 5 2V2.75H3.5C3.10218 2.75 2.72064 2.90804 2.43934 3.18934C2.15804 3.47064 2 3.85218 2 4.25V7.25H1.25C1.05109 7.25 0.860322 7.32902 0.71967 7.46967C0.579018 7.61032 0.5 7.80109 0.5 8C0.5 8.19891 0.579018 8.38968 0.71967 8.53033C0.860322 8.67098 1.05109 8.75 1.25 8.75H2V11.75C2 12.1478 2.15804 12.5294 2.43934 12.8107C2.72064 13.092 3.10218 13.25 3.5 13.25H5V14C5 14.3978 5.15804 14.7794 5.43934 15.0607C5.72064 15.342 6.10218 15.5 6.5 15.5H8.75C9.14782 15.5 9.52936 15.342 9.81066 15.0607C10.092 14.7794 10.25 14.3978 10.25 14V8.75H14.75V14C14.75 14.3978 14.908 14.7794 15.1893 15.0607C15.4706 15.342 15.8522 15.5 16.25 15.5H18.5C18.8978 15.5 19.2794 15.342 19.5607 15.0607C19.842 14.7794 20 14.3978 20 14V13.25H21.5C21.8978 13.25 22.2794 13.092 22.5607 12.8107C22.842 12.5294 23 12.1478 23 11.75V8.75H23.75C23.9489 8.75 24.1397 8.67098 24.2803 8.53033C24.421 8.38968 24.5 8.19891 24.5 8C24.5 7.80109 24.421 7.61032 24.2803 7.46967C24.1397 7.32902 23.9489 7.25 23.75 7.25ZM3.5 11.75V4.25H5V11.75H3.5ZM8.75 14H6.5V2H8.75V14ZM18.5 14H16.25V2H18.5V12.4831C18.5 12.4888 18.5 12.4944 18.5 12.5C18.5 12.5056 18.5 12.5112 18.5 12.5169V14ZM21.5 11.75H20V4.25H21.5V11.75Z" fill="#FEFEFE"/>
</svg>
