<svg width="25" height="26" viewBox="0 0 25 26" fill="none" xmlns="http://www.w3.org/2000/svg">
<path d="M23.8538 10.4702L13.8538 1.03519C13.8489 1.03093 13.8443 1.02633 13.84 1.02144C13.4718 0.686609 12.992 0.501068 12.4944 0.501068C11.9967 0.501068 11.5169 0.686609 11.1488 1.02144L11.135 1.03519L1.14625 10.4702C0.942497 10.6576 0.779855 10.8852 0.668614 11.1386C0.557374 11.3921 0.499958 11.6659 0.5 11.9427V23.4989C0.5 24.0294 0.710714 24.5381 1.08579 24.9132C1.46086 25.2882 1.96957 25.4989 2.5 25.4989H8.5C9.03043 25.4989 9.53914 25.2882 9.91421 24.9132C10.2893 24.5381 10.5 24.0294 10.5 23.4989V17.4989H14.5V23.4989C14.5 24.0294 14.7107 24.5381 15.0858 24.9132C15.4609 25.2882 15.9696 25.4989 16.5 25.4989H22.5C23.0304 25.4989 23.5391 25.2882 23.9142 24.9132C24.2893 24.5381 24.5 24.0294 24.5 23.4989V11.9427C24.5 11.6659 24.4426 11.3921 24.3314 11.1386C24.2201 10.8852 24.0575 10.6576 23.8538 10.4702ZM22.5 23.4989H16.5V17.4989C16.5 16.9685 16.2893 16.4598 15.9142 16.0847C15.5391 15.7097 15.0304 15.4989 14.5 15.4989H10.5C9.96957 15.4989 9.46086 15.7097 9.08579 16.0847C8.71071 16.4598 8.5 16.9685 8.5 17.4989V23.4989H2.5V11.9427L2.51375 11.9302L12.5 2.49894L22.4875 11.9277L22.5012 11.9402L22.5 23.4989Z" fill="#FEFEFE"/>
</svg>
