<svg width="23" height="24" viewBox="0 0 23 24" fill="none" xmlns="http://www.w3.org/2000/svg">
<path d="M5.28262 6.73121V0.974943C5.28262 0.7205 5.38339 0.476479 5.56277 0.296561C5.74216 0.116643 5.98545 0.0155656 6.23914 0.0155656C6.49282 0.0155656 6.73612 0.116643 6.9155 0.296561C7.09488 0.476479 7.19566 0.7205 7.19566 0.974943V6.73121C7.19566 6.98565 7.09488 7.22967 6.9155 7.40959C6.73612 7.58951 6.49282 7.69059 6.23914 7.69059C5.98545 7.69059 5.74216 7.58951 5.56277 7.40959C5.38339 7.22967 5.28262 6.98565 5.28262 6.73121ZM22.5 0.974943V23.0406C22.5 23.2951 22.3992 23.5391 22.2198 23.719C22.0405 23.8989 21.7972 24 21.5435 24C21.2898 24 21.0465 23.8989 20.8671 23.719C20.6877 23.5391 20.587 23.2951 20.587 23.0406V17.2844H14.8478C14.5941 17.2844 14.3508 17.1833 14.1715 17.0034C13.9921 16.8234 13.8913 16.5794 13.8913 16.325C13.9357 14.0269 14.2251 11.7402 14.7546 9.50381C15.9239 4.64816 18.1407 1.39347 21.1668 0.0935152C21.3123 0.0310241 21.4709 0.005701 21.6285 0.0198154C21.7862 0.0339299 21.9378 0.0870407 22.0699 0.174389C22.202 0.261737 22.3105 0.380594 22.3855 0.52031C22.4606 0.660026 22.4999 0.816236 22.5 0.974943ZM20.587 2.64186C16.7405 5.58835 15.9873 12.7657 15.8402 15.3656H20.587V2.64186ZM11.0086 0.817845C10.9899 0.691872 10.9463 0.570902 10.8805 0.46199C10.8146 0.353077 10.7278 0.258404 10.6251 0.183491C10.5224 0.108578 10.4059 0.0549262 10.2823 0.0256637C10.1587 -0.00359877 10.0305 -0.00788551 9.90528 0.0130534C9.78003 0.0339923 9.66018 0.0797379 9.55273 0.147622C9.44528 0.215505 9.35239 0.304168 9.27946 0.408439C9.20654 0.51271 9.15504 0.630501 9.12798 0.754942C9.10092 0.879383 9.09884 1.00798 9.12185 1.13324L10.0652 6.80676C10.0652 7.82453 9.66212 8.80062 8.94459 9.52029C8.22706 10.24 7.25388 10.6443 6.23914 10.6443C5.2244 10.6443 4.25122 10.24 3.53369 9.52029C2.81616 8.80062 2.41305 7.82453 2.41305 6.80676L3.35523 1.13324C3.37824 1.00798 3.37615 0.879383 3.34909 0.754942C3.32203 0.630501 3.27054 0.51271 3.19762 0.408439C3.12469 0.304168 3.0318 0.215505 2.92435 0.147622C2.8169 0.0797379 2.69705 0.0339923 2.57179 0.0130534C2.44653 -0.00788551 2.31837 -0.00359877 2.19478 0.0256637C2.07119 0.0549262 1.95465 0.108578 1.85195 0.183491C1.74925 0.258404 1.66245 0.353077 1.59661 0.46199C1.53078 0.570902 1.48722 0.691872 1.46849 0.817845L0.511965 6.57411C0.503782 6.62607 0.499783 6.6786 0.500009 6.73121C0.50192 8.0909 0.982954 9.40615 1.85811 10.4445C2.73327 11.483 3.94621 12.1777 5.28262 12.4059V23.0406C5.28262 23.2951 5.38339 23.5391 5.56277 23.719C5.74216 23.8989 5.98545 24 6.23914 24C6.49282 24 6.73612 23.8989 6.9155 23.719C7.09488 23.5391 7.19566 23.2951 7.19566 23.0406V12.4059C8.53206 12.1777 9.74501 11.483 10.6202 10.4445C11.4953 9.40615 11.9764 8.0909 11.9783 6.73121C11.9781 6.67857 11.9737 6.62604 11.9651 6.57411L11.0086 0.817845Z" fill="#FEFEFE"/>
</svg>
